<svg id="Layer_1" height="512" viewBox="0 0 128 128" width="512" xmlns="http://www.w3.org/2000/svg" data-name="Layer 1"><path d="m103.81 31.692v13.34a27.66 27.66 0 0 1 -27.66 27.66h-12.15v-15h12.15a12.66 12.66 0 0 0 12.66-12.66v-13.34a7.5 7.5 0 0 1 7.5-7.5 7.5 7.5 0 0 1 7.5 7.5z" fill="#51a448"/><path d="m64 76.852v15h-12.15a27.66 27.66 0 0 1 -27.66-27.66v-13.34a7.5 7.5 0 0 1 7.5-7.5 7.5 7.5 0 0 1 7.5 7.5v13.348a12.65 12.65 0 0 0 12.65 12.65z" fill="#51a448"/><path d="m74 121.5h-20l-3.764-94.678a13.775 13.775 0 0 1 13.764-14.322 13.775 13.775 0 0 1 13.764 14.322z" fill="#72bd39"/><g fill="#26180d"><path d="m102.852 25.156a9.158 9.158 0 0 0 -6.542-2.716 9.26 9.26 0 0 0 -9.25 9.25v13.34a10.836 10.836 0 0 1 -8.693 10.67l.422-10.6h4.305a1.75 1.75 0 0 0 0-3.5h-4.166l.494-12.415h4.354a1.75 1.75 0 0 0 0-3.5h-4.276a15.334 15.334 0 0 0 -3.295-9.007l2.827-3.811a1.75 1.75 0 1 0 -2.811-2.086l-2.516 3.39a15.313 15.313 0 0 0 -7.957-3.321v-4.35a1.75 1.75 0 0 0 -3.5 0v4.354a15.311 15.311 0 0 0 -7.957 3.321l-2.516-3.391a1.75 1.75 0 0 0 -2.811 2.086l2.828 3.811a15.328 15.328 0 0 0 -3.3 9.006h-4.267a1.75 1.75 0 0 0 0 3.5h4.354l.493 12.413h-4.166a1.75 1.75 0 0 0 0 3.5h4.305l.236 5.928a1.75 1.75 0 1 0 3.5-.139l-.3-7.456c0-.028.008-.055.008-.083a1.716 1.716 0 0 0 -.019-.192l-.653-16.408a12.025 12.025 0 1 1 24.03 0l-.653 16.42a1.729 1.729 0 0 0 -.018.18c0 .027.007.052.008.078l-.566 14.242v.058.011l-1.167 29.317a1.751 1.751 0 0 0 1.68 1.818h.07a1.751 1.751 0 0 0 1.748-1.681l1.11-27.914a14.318 14.318 0 0 0 12.335-14.249v-13.34a5.756 5.756 0 0 1 5.75-5.75 5.758 5.758 0 0 1 5.75 5.75v13.34a25.934 25.934 0 0 1 -17.375 24.47 1.75 1.75 0 1 0 1.152 3.3 29.436 29.436 0 0 0 19.723-27.77v-13.34a9.151 9.151 0 0 0 -2.708-6.534z"/><path d="m74.775 102h.07a1.751 1.751 0 0 0 1.748-1.681l.2-5a1.75 1.75 0 0 0 -3.5-.139l-.2 5a1.751 1.751 0 0 0 1.682 1.82z"/><path d="m59.379 107.543h.071a1.75 1.75 0 0 0 1.679-1.818l-1.543-38.794a1.75 1.75 0 1 0 -3.5.139l1.542 38.793a1.75 1.75 0 0 0 1.751 1.68z"/><path d="m103.809 119.75h-27.988l.465-11.684a1.75 1.75 0 1 0 -3.5-.139l-.47 11.822h-16.634l-1.7-42.873c0-.009 0-.018 0-.027s-.006-.041-.006-.062l-.736-18.524a1.77 1.77 0 0 0 -1.818-1.68 1.75 1.75 0 0 0 -1.682 1.817l.66 16.591a10.908 10.908 0 0 1 -9.46-10.791v-13.35a9.261 9.261 0 0 0 -9.25-9.25 9.26 9.26 0 0 0 -9.25 9.25v13.34a29.438 29.438 0 0 0 28.7 29.391l1.04 26.168h-27.989a1.75 1.75 0 1 0 0 3.5h79.618a1.75 1.75 0 0 0 0-3.5zm-77.869-55.56v-13.34a5.756 5.756 0 0 1 5.75-5.75 5.761 5.761 0 0 1 5.75 5.75v13.35a14.415 14.415 0 0 0 13.1 14.334l.46 11.544a25.936 25.936 0 0 1 -25.06-25.888z"/></g></svg>